<?xml version="1.0" encoding="UTF-8" standalone="no"?>
<!-- Created with Inkscape (http://www.inkscape.org/) -->

<svg
   xmlns:dc="http://purl.org/dc/elements/1.1/"
   xmlns:cc="http://creativecommons.org/ns#"
   xmlns:rdf="http://www.w3.org/1999/02/22-rdf-syntax-ns#"
   xmlns:svg="http://www.w3.org/2000/svg"
   xmlns="http://www.w3.org/2000/svg"
   xmlns:sodipodi="http://sodipodi.sourceforge.net/DTD/sodipodi-0.dtd"
   xmlns:inkscape="http://www.inkscape.org/namespaces/inkscape"
   width="50"
   height="50"
   viewBox="0 0 13.229167 13.229167"
   version="1.1"
   id="svg1690"
   inkscape:version="0.92.3 (2405546, 2018-03-11)"
   sodipodi:docname="icon.svg">
  <defs
     id="defs1684" />
  <sodipodi:namedview
     id="base"
     pagecolor="#ffffff"
     bordercolor="#666666"
     borderopacity="1.0"
     inkscape:pageopacity="0.0"
     inkscape:pageshadow="2"
     inkscape:zoom="3.959798"
     inkscape:cx="-48.817653"
     inkscape:cy="28.961565"
     inkscape:document-units="mm"
     inkscape:current-layer="layer1"
     showgrid="false"
     fit-margin-top="0"
     fit-margin-left="0"
     fit-margin-right="0"
     fit-margin-bottom="0"
     inkscape:window-width="1920"
     inkscape:window-height="1017"
     inkscape:window-x="1912"
     inkscape:window-y="-8"
     inkscape:window-maximized="1"
     units="px" />
  <metadata
     id="metadata1687">
    <rdf:RDF>
      <cc:Work
         rdf:about="">
        <dc:format>image/svg+xml</dc:format>
        <dc:type
           rdf:resource="http://purl.org/dc/dcmitype/StillImage" />
        <dc:title></dc:title>
      </cc:Work>
    </rdf:RDF>
  </metadata>
  <g
     inkscape:label="Laag 1"
     inkscape:groupmode="layer"
     id="layer1"
     transform="translate(-4.3000968,-187.80866)">
    <path
       inkscape:connector-curvature="0"
       style="font-style:normal;font-weight:normal;font-size:medium;line-height:1.25;font-family:sans-serif;letter-spacing:0px;word-spacing:0px;opacity:1;fill:#ffffff;fill-opacity:1;stroke:none;stroke-width:0.15751408;stroke-miterlimit:4;stroke-dasharray:none"
       d="m 6.303462,188.57736 c -1.0315097,0 -1.8617967,0.83045 -1.8617967,1.86196 v 5.786 c 0,1.0315 0.830287,1.86196 1.8617967,1.86196 h 3.0133286 l 0.7494234,1.57994 c 0.18234,0.40114 0.462658,0.6019 0.83947,0.6019 0.206642,0 0.376104,-0.0427 0.509821,-0.12775 0.133696,-0.0973 0.255993,-0.25552 0.365389,-0.47432 l 0.749505,-1.57977 h 2.995338 c 1.031508,0 1.861958,-0.83046 1.861958,-1.86196 v -5.786 c 0,-1.03151 -0.83045,-1.86196 -1.861958,-1.86196 z m 2.1951092,2.4856 a 0.85616221,1.0456465 0 0 1 0.8561591,1.04561 0.85616221,1.0456465 0 0 1 -0.8561591,1.0457 0.85616221,1.0456465 0 0 1 -0.85616,-1.0457 0.85616221,1.0456465 0 0 1 0.85616,-1.04561 z m 4.8322168,0 a 0.85616221,1.0456465 0 0 1 0.85616,1.04561 0.85616221,1.0456465 0 0 1 -0.85616,1.0457 0.85616221,1.0456465 0 0 1 -0.856157,-1.0457 0.85616221,1.0456465 0 0 1 0.856157,-1.04561 z m -4.9273099,3.63974 h 5.0224039 c 0.858593,0 0.877245,0.0205 0.877245,0.50656 0,0.48606 -0.495155,0.71913 -0.877245,0.87741 -1.546669,0.64073 -3.4757079,0.64066 -5.0224039,0 -0.3821305,-0.15828 -0.8774085,-0.39135 -0.8774085,-0.87741 0,-0.48606 0.010866,-0.48863 0.8774085,-0.50656 z"
       id="path951-8-3-4" />
  </g>
</svg>
