<?xml version="1.0" encoding="UTF-8" standalone="no"?>
<!-- Created with Inkscape (http://www.inkscape.org/) -->

<svg
   xmlns:dc="http://purl.org/dc/elements/1.1/"
   xmlns:cc="http://creativecommons.org/ns#"
   xmlns:rdf="http://www.w3.org/1999/02/22-rdf-syntax-ns#"
   xmlns:svg="http://www.w3.org/2000/svg"
   xmlns="http://www.w3.org/2000/svg"
   xmlns:sodipodi="http://sodipodi.sourceforge.net/DTD/sodipodi-0.dtd"
   xmlns:inkscape="http://www.inkscape.org/namespaces/inkscape"
   width="50"
   height="50"
   viewBox="0 0 13.229167 13.229167"
   version="1.1"
   id="svg1690"
   inkscape:version="0.92.3 (2405546, 2018-03-11)"
   sodipodi:docname="icon.svg">
  <defs
     id="defs1684" />
  <sodipodi:namedview
     id="base"
     pagecolor="#ffffff"
     bordercolor="#666666"
     borderopacity="1.0"
     inkscape:pageopacity="0.0"
     inkscape:pageshadow="2"
     inkscape:zoom="2.8"
     inkscape:cx="38.054628"
     inkscape:cy="46.28683"
     inkscape:document-units="mm"
     inkscape:current-layer="layer1"
     showgrid="false"
     fit-margin-top="0"
     fit-margin-left="0"
     fit-margin-right="0"
     fit-margin-bottom="0"
     inkscape:window-width="1920"
     inkscape:window-height="1017"
     inkscape:window-x="1912"
     inkscape:window-y="-8"
     inkscape:window-maximized="1"
     units="px" />
  <metadata
     id="metadata1687">
    <rdf:RDF>
      <cc:Work
         rdf:about="">
        <dc:format>image/svg+xml</dc:format>
        <dc:type
           rdf:resource="http://purl.org/dc/dcmitype/StillImage" />
        <dc:title></dc:title>
      </cc:Work>
    </rdf:RDF>
  </metadata>
  <g
     inkscape:label="Laag 1"
     inkscape:groupmode="layer"
     id="layer1"
     transform="translate(-4.3000968,-187.80866)">
    <path
       style="font-style:normal;font-weight:normal;font-size:medium;line-height:1.25;font-family:sans-serif;letter-spacing:0px;word-spacing:0px;fill:#ffffff;fill-opacity:1;stroke:none;stroke-width:1.74673665"
       d="m 6.2026295,188.44951 c -1.0540733,0 -1.9025327,0.84861 -1.9025327,1.90268 v 5.91251 c 0,1.05407 0.8484594,1.90268 1.9025327,1.90268 h 3.0791698 l 0.7658987,1.61456 c 0.186332,0.40991 0.472765,0.61504 0.857821,0.61504 0.211162,0 0.384344,-0.0436 0.520982,-0.13055 0.136623,-0.0994 0.26154,-0.26106 0.37333,-0.48464 l 0.765899,-1.61441 h 3.060849 c 1.054071,0 1.902684,-0.84861 1.902684,-1.90268 v -5.91251 c 0,-1.05407 -0.848613,-1.90268 -1.902684,-1.90268 z m 0.999058,2.63942 H 14.62767 c 0.496697,0 0.896606,0.3999 0.896606,0.8966 0,0.49669 -0.399909,0.8966 -0.896606,0.8966 H 7.2016875 c -0.4966946,0 -0.8966018,-0.39991 -0.8966018,-0.8966 0,-0.4967 0.3999072,-0.8966 0.8966018,-0.8966 z m 1.1468628,3.24087 h 5.1322577 c 0.496696,0 0.896449,0.3999 0.896449,0.8966 0,0.49669 -0.399753,0.8966 -0.896449,0.8966 H 8.3485503 c -0.4966933,0 -0.8966021,-0.39991 -0.8966021,-0.8966 0,-0.4967 0.3999088,-0.8966 0.8966021,-0.8966 z"
       id="path951-8"
       inkscape:connector-curvature="0" />
  </g>
</svg>
