<?xml version="1.0" encoding="UTF-8" standalone="no"?>
<svg
   xmlns:dc="http://purl.org/dc/elements/1.1/"
   xmlns:cc="http://creativecommons.org/ns#"
   xmlns:rdf="http://www.w3.org/1999/02/22-rdf-syntax-ns#"
   xmlns:svg="http://www.w3.org/2000/svg"
   xmlns="http://www.w3.org/2000/svg"
   xmlns:sodipodi="http://sodipodi.sourceforge.net/DTD/sodipodi-0.dtd"
   xmlns:inkscape="http://www.inkscape.org/namespaces/inkscape"
   width="512px"
   height="512px"
   viewBox="0 0 512 512"
   version="1.1"
   id="svg10"
   sodipodi:docname="logo.svg"
   inkscape:version="0.92.3 (2405546, 2018-03-11)">
  <metadata
     id="metadata16">
    <rdf:RDF>
      <cc:Work
         rdf:about="">
        <dc:format>image/svg+xml</dc:format>
        <dc:type
           rdf:resource="http://purl.org/dc/dcmitype/StillImage" />
        <dc:title>woot-log</dc:title>
      </cc:Work>
    </rdf:RDF>
  </metadata>
  <defs
     id="defs14" />
  <sodipodi:namedview
     pagecolor="#ffffff"
     bordercolor="#666666"
     borderopacity="1"
     objecttolerance="10"
     gridtolerance="10"
     guidetolerance="10"
     inkscape:pageopacity="0"
     inkscape:pageshadow="2"
     inkscape:window-width="1920"
     inkscape:window-height="1017"
     id="namedview12"
     showgrid="false"
     inkscape:zoom="0.65186406"
     inkscape:cx="82.314831"
     inkscape:cy="471.25044"
     inkscape:window-x="-8"
     inkscape:window-y="-8"
     inkscape:window-maximized="1"
     inkscape:current-layer="woot-log" />
  <!-- Generator: Sketch 59.1 (86144) - https://sketch.com -->
  <title
     id="title2">woot-log</title>
  <desc
     id="desc4">Created with Sketch.</desc>
  <g
     id="Logo"
     stroke="none"
     stroke-width="1"
     fill="none"
     fill-rule="evenodd">
    <g
       id="woot-log"
       fill-rule="nonzero">
      <path
         inkscape:connector-curvature="0"
         id="path951-8"
         d="m 60.094392,5.9812914 c -7.370834,0 -13.777122,1.530549 -19.304628,4.6017936 -17.198177,8.59822 -25.810445,21.180806 -25.810445,37.764067 0,6.142026 1.184589,11.693872 3.64865,16.607684 l 26.1279,55.059794 H 469.73649 l 26.1281,-55.059794 c 3.07061,-6.141794 4.60098,-11.97889 4.60098,-17.506808 0,-7.984825 -2.1086,-15.067204 -6.39931,-21.209214 -4.30022,-6.75638 -10.47444,-11.970131 -18.45863,-15.655729 -6.14357,-3.0714925 -13.1731,-4.6017936 -21.15748,-4.6017936 z M 82.467124,199.56244 136.57362,313.59556 h 241.39517 l 54.05664,-114.03312 z m 91.820086,193.58117 39.6683,83.62078 c 5.52731,11.05559 11.70153,19.04587 18.45863,23.95968 6.75478,4.29995 15.31486,6.45193 25.75613,6.45193 19.04171,0 33.20496,-10.14417 42.41896,-30.41257 l 39.6683,-83.62053 z"
         style="font-style:normal;font-weight:normal;font-size:medium;line-height:1.25;font-family:sans-serif;letter-spacing:0px;word-spacing:0px;fill:#222222;fill-opacity:1;stroke:none;stroke-width:86.37123108" />
    </g>
  </g>
</svg>
