<?xml version="1.0" encoding="UTF-8" standalone="no"?>
<svg
   xmlns:dc="http://purl.org/dc/elements/1.1/"
   xmlns:cc="http://creativecommons.org/ns#"
   xmlns:rdf="http://www.w3.org/1999/02/22-rdf-syntax-ns#"
   xmlns:svg="http://www.w3.org/2000/svg"
   xmlns="http://www.w3.org/2000/svg"
   xmlns:sodipodi="http://sodipodi.sourceforge.net/DTD/sodipodi-0.dtd"
   xmlns:inkscape="http://www.inkscape.org/namespaces/inkscape"
   width="2458px"
   height="512px"
   viewBox="0 0 2458 512"
   version="1.1"
   id="svg12"
   sodipodi:docname="woot-logo.svg"
   inkscape:version="0.92.3 (2405546, 2018-03-11)">
  <metadata
     id="metadata18">
    <rdf:RDF>
      <cc:Work
         rdf:about="">
        <dc:format>image/svg+xml</dc:format>
        <dc:type
           rdf:resource="http://purl.org/dc/dcmitype/StillImage" />
        <dc:title>on_white</dc:title>
      </cc:Work>
    </rdf:RDF>
  </metadata>
  <defs
     id="defs16" />
  <sodipodi:namedview
     pagecolor="#ffffff"
     bordercolor="#666666"
     borderopacity="1"
     objecttolerance="10"
     gridtolerance="10"
     guidetolerance="10"
     inkscape:pageopacity="0"
     inkscape:pageshadow="2"
     inkscape:window-width="1920"
     inkscape:window-height="1017"
     id="namedview14"
     showgrid="false"
     inkscape:zoom="0.41080085"
     inkscape:cx="1206.1691"
     inkscape:cy="445.4339"
     inkscape:window-x="1912"
     inkscape:window-y="-8"
     inkscape:window-maximized="1"
     inkscape:current-layer="svg12" />
  <!-- Generator: Sketch 60.1 (88133) - https://sketch.com -->
  <title
     id="title2">on_white</title>
  <desc
     id="desc4">Created with Sketch.</desc>
  <g
     id="g886"
     transform="translate(-88,-13.278379)">
    <g
       style="fill:#222222;fill-opacity:1"
       id="g1300"
       transform="matrix(48.548637,0,0,48.548637,345.86023,996.23039)">
      <path
         inkscape:connector-curvature="0"
         id="rect209-7-4"
         d="m 9.781848,-18.807893 c -0.033861,-0.0023 -0.068582,0.0081 -0.096337,0.03227 -0.05551,0.04827 -0.061276,0.131868 -0.013006,0.187377 l 0.583968,0.671475 -0.583968,0.671474 c -0.048269,0.05551 -0.042503,0.139106 0.013006,0.187377 0.055509,0.04827 0.1391069,0.0425 0.1873766,-0.01301 l 0.1477184,-0.169875 c 0.0012,-0.0015 0.002,-0.0031 0.0032,-0.0045 l 0.583957,-0.671476 -0.583968,-0.671474 c -10e-4,-0.0012 -0.0016,-0.0025 -0.0025,-0.0037 l -0.1483841,-0.170516 c -0.024134,-0.02775 -0.057179,-0.04308 -0.091038,-0.04544 z"
         style="font-style:normal;font-weight:normal;font-size:40px;line-height:1.25;font-family:sans-serif;letter-spacing:0px;word-spacing:0px;fill:#222222;fill-opacity:1;stroke:none;stroke-width:0.08709692"
         sodipodi:nodetypes="cccccsccccccccc" />
      <path
         inkscape:connector-curvature="0"
         id="rect209-7-5-2"
         d="m 11.082889,-18.807893 c -0.03387,0.0024 -0.0669,0.01768 -0.09104,0.04544 l -0.383746,0.441387 0.175656,0.201988 1.58e-4,3.56e-4 0.408312,-0.469487 c 0.04827,-0.05551 0.0425,-0.139108 -0.01301,-0.187379 -0.02776,-0.02413 -0.06247,-0.03466 -0.09634,-0.03227 z m -0.298806,1.093274 -3.54e-4,3.54e-4 -0.175656,0.201988 0.383746,0.441389 c 0.04827,0.05551 0.131868,0.06128 0.187377,0.013 0.05551,-0.04827 0.06128,-0.131868 0.01301,-0.187377 z"
         style="font-style:normal;font-weight:normal;font-size:40px;line-height:1.25;font-family:sans-serif;letter-spacing:0px;word-spacing:0px;fill:#222222;fill-opacity:1;stroke:none;stroke-width:0.08709692"
         sodipodi:nodetypes="cccccccccccccccc" />
      <path
         inkscape:connector-curvature="0"
         id="path1223"
         style="font-style:normal;font-variant:normal;font-weight:bold;font-stretch:normal;font-size:medium;line-height:1.25;font-family:Comfortaa;-inkscape-font-specification:'Comfortaa Bold';letter-spacing:0px;word-spacing:0px;fill:#222222;fill-opacity:1;stroke:none;stroke-width:0.0802511"
         d="m 6.4948203,-18.813162 q 0.2214932,0 0.3980456,0.0963 0.1765525,0.0963 0.276064,0.282484 0.099511,0.182972 0.099511,0.442986 v 0.789671 q 0,0.07062 -0.04815,0.118772 -0.044941,0.04494 -0.1155621,0.04494 -0.070621,0 -0.1187714,-0.04494 -0.044941,-0.04815 -0.044941,-0.118772 v -0.789671 q 0,-0.260014 -0.1412416,-0.391625 -0.1380323,-0.134822 -0.3691554,-0.134822 -0.1348217,0 -0.2471734,0.05457 -0.1091415,0.05457 -0.1733421,0.147662 -0.060991,0.09309 -0.060991,0.208652 v 0.905233 q 0,0.07062 -0.044941,0.118772 -0.04494,0.04494 -0.118771,0.04494 -0.070621,0 -0.1187717,-0.04494 -0.044941,-0.04815 -0.044941,-0.118772 v -1.43168 q 0,-0.07383 0.044941,-0.118772 0.04815,-0.04494 0.1187717,-0.04494 0.073831,0 0.118771,0.04494 0.044941,0.04494 0.044941,0.118772 v 0.03531 q 0.1027215,-0.102722 0.243963,-0.157293 0.141242,-0.05778 0.3017442,-0.05778 z" />
      <path
         inkscape:connector-curvature="0"
         id="path1225"
         style="font-style:normal;font-variant:normal;font-weight:bold;font-stretch:normal;font-size:medium;line-height:1.25;font-family:Comfortaa;-inkscape-font-specification:'Comfortaa Bold';letter-spacing:0px;word-spacing:0px;fill:#222222;fill-opacity:1;stroke:none;stroke-width:0.0802511"
         d="m 9.3859159,-17.946449 q 0,0.06099 -0.04173,0.102721 -0.04173,0.03852 -0.1059318,0.03852 H 8.0184379 q 0.035309,0.224702 0.2022323,0.362735 0.1701325,0.138031 0.4140959,0.138031 0.096301,0 0.1990226,-0.03531 0.1059315,-0.03531 0.1733421,-0.08667 0.044941,-0.03531 0.1059315,-0.03531 0.060991,0 0.096302,0.0321 0.057781,0.04815 0.057781,0.109141 0,0.05778 -0.051361,0.0963 -0.1091414,0.08667 -0.2728536,0.141242 -0.1605025,0.05457 -0.3081644,0.05457 -0.2632237,0 -0.4718766,-0.112351 -0.2086529,-0.115562 -0.3274247,-0.317795 -0.1155614,-0.202233 -0.1155614,-0.459036 0,-0.256803 0.1091418,-0.459036 0.1123511,-0.205443 0.3081645,-0.317794 0.1990226,-0.115562 0.4494053,-0.115562 0.2471737,0 0.4269365,0.109141 0.1797624,0.109142 0.2760632,0.304955 0.096301,0.195812 0.096301,0.449406 z M 8.586615,-18.533887 q -0.2343332,0 -0.3819951,0.128401 -0.1444519,0.128402 -0.182972,0.343475 h 1.0689442 q -0.02889,-0.215073 -0.1605022,-0.343475 -0.131612,-0.128401 -0.3434749,-0.128401 z" />
      <path
         inkscape:connector-curvature="0"
         id="path1227"
         style="font-style:normal;font-variant:normal;font-weight:bold;font-stretch:normal;font-size:medium;line-height:1.25;font-family:Comfortaa;-inkscape-font-specification:'Comfortaa Bold';letter-spacing:0px;word-spacing:0px;fill:#222222;fill-opacity:1;stroke:none;stroke-width:0.0802511"
         d="m 12.432349,-17.362221 q 0.05778,0 0.0963,0.04494 0.04173,0.04494 0.04173,0.115562 0,0.07062 -0.05457,0.115562 -0.05136,0.04494 -0.134822,0.04494 h -0.05778 q -0.157292,0 -0.288904,-0.08025 -0.128402,-0.08346 -0.202232,-0.224703 -0.07383,-0.141242 -0.07383,-0.317794 v -0.792881 h -0.147662 q -0.06741,0 -0.109141,-0.03852 -0.04173,-0.03852 -0.04173,-0.0963 0,-0.0642 0.04173,-0.102721 0.04173,-0.03852 0.109141,-0.03852 h 0.147662 v -0.462247 q 0,-0.07062 0.04494,-0.115561 0.04494,-0.04494 0.115561,-0.04494 0.07062,0 0.115562,0.04494 0.04494,0.04494 0.04494,0.115561 v 0.462247 h 0.272853 q 0.06741,0 0.109142,0.03852 0.04173,0.03852 0.04173,0.102721 0,0.05778 -0.04173,0.0963 -0.04173,0.03852 -0.109142,0.03852 h -0.272853 v 0.792881 q 0,0.128401 0.07062,0.215073 0.07062,0.08667 0.173342,0.08667 z" />
      <path
         d="m -2.9252485,-18.827817 q 0.3798518,0 0.6309404,0.289717 0.032191,0.03541 0.032191,0.0837 0,0.07082 -0.07082,0.119106 -0.032191,0.02254 -0.074039,0.02254 -0.074039,0 -0.1255443,-0.05794 -0.080477,-0.08691 -0.1770496,-0.125544 -0.093353,-0.04185 -0.2156786,-0.04185 -0.2478694,0 -0.4023854,0.167392 -0.1545159,0.164174 -0.1545159,0.437796 0,0.17383 0.070819,0.312251 0.074039,0.135201 0.2028023,0.212459 0.1319826,0.07726 0.2993749,0.07726 0.2188977,0 0.3540993,-0.112668 0.061163,-0.04507 0.119106,-0.04507 0.045067,0 0.083696,0.02897 0.061163,0.0515 0.061163,0.115887 0,0.04829 -0.038629,0.08691 -0.231774,0.215679 -0.5794351,0.215679 -0.2543076,0 -0.4571097,-0.115887 -0.2028026,-0.115887 -0.3186894,-0.31869 -0.1126678,-0.206021 -0.1126678,-0.457109 0,-0.257528 0.1094485,-0.460329 0.1126679,-0.206022 0.3122513,-0.31869 0.1995831,-0.115887 0.4506717,-0.115887 z"
         style="font-style:normal;font-variant:normal;font-weight:bold;font-stretch:normal;font-size:medium;line-height:1.25;font-family:Comfortaa;-inkscape-font-specification:'Comfortaa Bold';letter-spacing:0px;word-spacing:0px;fill:#222222;fill-opacity:1;stroke:none;stroke-width:0.0804771"
         id="path887"
         inkscape:connector-curvature="0" />
      <path
         d="m -0.31919899,-18.81816 q 0.0740391,0 0.11910616,0.04507 0.0450671,0.04507 0.0450671,0.119106 v 1.435711 q 0,0.07082 -0.0450671,0.119106 -0.0450671,0.04507 -0.11910616,0.04507 -0.0708198,0 -0.11910609,-0.04507 -0.0450672,-0.04829 -0.0450672,-0.119106 v -0.03541 q -0.10301071,0.103011 -0.24465037,0.160954 -0.14163968,0.05472 -0.30259385,0.05472 -0.2221168,0 -0.3991664,-0.09657 -0.1770496,-0.09657 -0.2768412,-0.28006 -0.099792,-0.186707 -0.099792,-0.447453 v -0.791895 q 0,-0.07082 0.045067,-0.115886 0.048286,-0.04829 0.1191061,-0.04829 0.07082,0 0.1158869,0.04829 0.048286,0.04507 0.048286,0.115886 v 0.791895 q 0,0.260746 0.1384206,0.395947 0.1416397,0.131983 0.37341376,0.131983 0.13520152,0 0.24465035,-0.05472 0.11266797,-0.05472 0.17383055,-0.148078 0.0643817,-0.09335 0.0643817,-0.209241 v -0.907782 q 0,-0.07404 0.0450672,-0.119106 0.0482862,-0.04507 0.11910609,-0.04507 z"
         style="font-style:normal;font-variant:normal;font-weight:bold;font-stretch:normal;font-size:medium;line-height:1.25;font-family:Comfortaa;-inkscape-font-specification:'Comfortaa Bold';letter-spacing:0px;word-spacing:0px;fill:#222222;fill-opacity:1;stroke:none;stroke-width:0.0804771"
         id="path889"
         inkscape:connector-curvature="0" />
      <path
         d="m 1.0413166,-18.827817 q 0.2092406,0 0.3734139,0.0676 0.167392,0.0676 0.2639647,0.186707 0.041848,0.0515 0.041848,0.103011 0,0.05472 -0.054724,0.09979 -0.03541,0.02575 -0.090135,0.02575 -0.083696,0 -0.1512965,-0.06116 -0.080477,-0.07404 -0.1706118,-0.10301 -0.090134,-0.03219 -0.2188976,-0.03219 -0.14807772,0 -0.24465046,0.0515 -0.0933533,0.04829 -0.0933533,0.138421 0,0.06438 0.0321908,0.109449 0.0321911,0.04185 0.1223252,0.08048 0.0901345,0.03541 0.26074596,0.07082 0.3508802,0.07082 0.4957388,0.196364 0.1480781,0.125545 0.1480781,0.325127 0,0.148078 -0.080477,0.270403 -0.080477,0.119106 -0.2382123,0.189926 -0.1545159,0.0676 -0.3734139,0.0676 -0.21889765,0 -0.41204247,-0.0676 -0.19314516,-0.0676 -0.30259398,-0.177049 -0.041848,-0.04185 -0.041848,-0.09979 0,-0.07726 0.0643817,-0.125544 0.0611623,-0.04507 0.11266794,-0.04507 0.0643814,0 0.12232523,0.05794 0.0611626,0.0676 0.18348749,0.119106 0.12232524,0.04829 0.26074589,0.04829 0.1834879,0 0.2832794,-0.06116 0.1030106,-0.06116 0.1030106,-0.164173 0,-0.09979 -0.099792,-0.164174 -0.099792,-0.0676 -0.33800375,-0.112667 -0.61806397,-0.119107 -0.61806397,-0.508616 0,-0.157735 0.0933533,-0.267183 0.0933533,-0.10945 0.24465043,-0.164174 0.15129681,-0.05472 0.32190819,-0.05472 z"
         style="font-style:normal;font-variant:normal;font-weight:bold;font-stretch:normal;font-size:medium;line-height:1.25;font-family:Comfortaa;-inkscape-font-specification:'Comfortaa Bold';letter-spacing:0px;word-spacing:0px;fill:#222222;fill-opacity:1;stroke:none;stroke-width:0.0804771"
         id="path891"
         inkscape:connector-curvature="0" />
      <path
         d="m 2.9211609,-17.376011 q 0.057944,0 0.096573,0.04507 0.041848,0.04507 0.041848,0.115888 0,0.07082 -0.054725,0.115886 -0.051505,0.04507 -0.1352012,0.04507 h -0.057943 q -0.1577355,0 -0.2897179,-0.08048 -0.1287632,-0.0837 -0.2028023,-0.225337 -0.074039,-0.141639 -0.074039,-0.318688 v -0.795114 h -0.148078 q -0.067601,0 -0.1094488,-0.03863 -0.041848,-0.03863 -0.041848,-0.09657 0,-0.06438 0.041848,-0.103011 0.041848,-0.03863 0.1094488,-0.03863 h 0.1480777 v -0.463548 q 0,-0.07082 0.045068,-0.115887 0.045067,-0.04507 0.115887,-0.04507 0.07082,0 0.1158868,0.04507 0.045067,0.04507 0.045067,0.115887 v 0.463548 h 0.2736218 q 0.067601,0 0.1094493,0.03863 0.041848,0.03863 0.041848,0.103011 0,0.05794 -0.041848,0.09657 -0.041848,0.03863 -0.1094493,0.03863 H 2.5670619 v 0.795114 q 0,0.128763 0.07082,0.215678 0.07082,0.08692 0.1738309,0.08692 z"
         style="font-style:normal;font-variant:normal;font-weight:bold;font-stretch:normal;font-size:medium;line-height:1.25;font-family:Comfortaa;-inkscape-font-specification:'Comfortaa Bold';letter-spacing:0px;word-spacing:0px;fill:#222222;fill-opacity:1;stroke:none;stroke-width:0.0804771"
         id="path893"
         inkscape:connector-curvature="0" />
      <path
         d="m 4.2583382,-18.827817 q 0.2543077,0 0.4538908,0.115886 0.2028021,0.112668 0.3154705,0.315471 0.1158867,0.202802 0.1158867,0.463548 0,0.257526 -0.112668,0.460329 -0.1126677,0.202802 -0.3154702,0.318689 -0.199583,0.112668 -0.4571098,0.112668 -0.2575268,0 -0.4603289,-0.112668 -0.2028025,-0.115887 -0.3154705,-0.318689 -0.1126676,-0.202803 -0.1126676,-0.460329 0,-0.260746 0.1126676,-0.463548 0.112668,-0.202803 0.3154705,-0.315471 0.2028021,-0.115886 0.4603289,-0.115886 z m 0,0.289717 q -0.1641732,0 -0.2961557,0.07726 -0.1287634,0.07726 -0.2028025,0.215679 -0.074039,0.13842 -0.074039,0.312251 0,0.17383 0.074039,0.312251 0.074039,0.135201 0.2028025,0.212459 0.1319825,0.07726 0.2961557,0.07726 0.1641732,0 0.2929366,-0.07726 0.1319825,-0.07726 0.2028025,-0.212459 0.074039,-0.138421 0.074039,-0.312251 0,-0.173831 -0.074039,-0.312251 -0.07082,-0.138421 -0.2028025,-0.215679 -0.1287634,-0.07726 -0.2929366,-0.07726 z"
         style="font-style:normal;font-variant:normal;font-weight:bold;font-stretch:normal;font-size:medium;line-height:1.25;font-family:Comfortaa;-inkscape-font-specification:'Comfortaa Bold';letter-spacing:0px;word-spacing:0px;fill:#222222;fill-opacity:1;stroke:none;stroke-width:0.0804771"
         id="path895"
         inkscape:connector-curvature="0" />
    </g>
    <path
       d="m 290.164,218.75756 q 56.02591,0 93.06108,42.73252 4.7486,5.2226 4.7486,12.3449 0,10.44581 -10.44594,17.56786 -4.7486,3.32365 -10.92092,3.32365 -10.91971,0 -18.51698,-8.5465 -11.86967,-12.81976 -26.11425,-18.51747 -13.76959,-6.17244 -31.81159,-6.17244 -36.56019,0 -59.35079,24.68991 -22.7906,24.21505 -22.7906,64.57351 0,25.63952 10.44473,46.05617 10.92092,19.94193 29.91289,31.33722 19.46693,11.3953 44.15746,11.3953 32.28657,0 52.22849,-16.61815 9.021,-6.6473 17.56824,-6.6473 6.6473,0 12.34465,4.27301 9.021,7.5969 9.021,17.093 0,7.12205 -5.69735,12.81976 -34.1865,31.81196 -85.46503,31.81196 -37.51016,0 -67.42304,-17.09301 -29.9129,-17.09301 -47.00492,-47.00577 -16.61828,-30.3875 -16.61828,-67.4223 0,-37.98453 16.1433,-67.8973 16.61827,-30.3875 46.05618,-47.00577 29.4379,-17.093 66.47307,-17.093 z"
       style="font-style:normal;font-variant:normal;font-weight:bold;font-stretch:normal;font-size:medium;line-height:1.25;font-family:Comfortaa;-inkscape-font-specification:'Comfortaa Bold';letter-spacing:0px;word-spacing:0px;fill:#00ff66;fill-opacity:1;stroke:none;stroke-width:44.51302338"
       id="path873"
       inkscape:connector-curvature="0" />
    <path
       d="m 578.16311,218.75756 q 37.50894,0 66.9468,17.09301 29.91294,16.61827 46.5312,46.53091 17.09323,29.91276 17.09323,68.37202 0,37.98441 -16.61826,67.89717 -16.61826,29.91277 -46.53119,47.00577 -29.43786,16.61827 -67.42178,16.61827 -37.98514,0 -67.89802,-16.61827 -29.91289,-17.093 -46.53115,-47.00577 -16.61705,-29.91276 -16.61705,-67.89717 0,-38.45926 16.61705,-68.37202 16.61826,-29.91264 46.53115,-46.53091 29.91288,-17.09301 67.89802,-17.09301 z m 0,42.73252 q -24.21555,0 -43.68248,11.39529 -18.99196,11.39542 -29.91289,31.81196 -10.92092,20.41667 -10.92092,46.05617 0,25.63952 10.92092,46.05617 10.92093,19.94181 29.91289,31.3371 19.46693,11.3953 43.68248,11.3953 24.21432,0 43.20627,-11.3953 19.46815,-11.39529 29.9129,-31.3371 10.92095,-20.41665 10.92095,-46.05617 0,-25.6395 -10.92095,-46.05617 -10.44475,-20.41654 -29.9129,-31.81196 -18.99195,-11.39529 -43.20627,-11.39529 z"
       style="font-style:normal;font-variant:normal;font-weight:bold;font-stretch:normal;font-size:medium;line-height:1.25;font-family:Comfortaa;-inkscape-font-specification:'Comfortaa Bold';letter-spacing:0px;word-spacing:0px;fill:#00ff66;fill-opacity:1;stroke:none;stroke-width:44.51302338"
       id="path875"
       inkscape:connector-curvature="0" />
    <path
       d="m 910.42221,218.2827 q 32.76154,0 58.87584,14.24421 26.1142,14.24422 40.83385,41.7828 14.7183,27.06397 14.7183,65.52323 v 116.80214 q 0,10.4457 -7.1211,17.56786 -6.6473,6.64731 -17.0932,6.64731 -10.44598,0 -17.56829,-6.64731 -6.64725,-7.12216 -6.64725,-17.56786 V 339.83294 q 0,-38.45926 -20.89073,-57.9262 -20.4169,-19.94193 -54.60335,-19.94193 -19.94193,0 -36.56019,8.07177 -16.14328,8.07164 -25.63923,21.84099 -9.02106,13.76936 -9.02106,30.86237 v 133.89514 q 0,10.4457 -6.64725,17.56786 -6.64734,6.64731 -17.5683,6.64731 -10.44465,0 -17.56697,-6.64731 -6.64734,-7.12216 -6.64734,-17.56786 V 244.87181 q 0,-10.92044 6.64734,-17.56775 7.12232,-6.6473 17.56697,-6.6473 10.92096,0 17.5683,6.6473 6.64725,6.64731 6.64725,17.56775 v 5.2226 q 15.19334,-15.1938 36.08521,-23.26545 20.89188,-8.5465 44.6312,-8.5465 z"
       style="font-style:normal;font-variant:normal;font-weight:bold;font-stretch:normal;font-size:medium;line-height:1.25;font-family:Comfortaa;-inkscape-font-specification:'Comfortaa Bold';letter-spacing:0px;word-spacing:0px;fill:#00ff66;fill-opacity:1;stroke:none;stroke-width:44.51302338"
       id="path877"
       inkscape:connector-curvature="0" />
    <path
       d="m 1575.4546,346.48025 q 0,9.02124 -6.1723,15.19381 -6.1723,5.69759 -15.6684,5.69759 h -180.426 q 5.2224,33.23642 29.9129,53.65307 25.1643,20.41667 61.2495,20.41667 14.2446,0 29.4379,-5.22261 15.6683,-5.22261 25.6393,-12.81975 6.6472,-5.2231 15.6683,-5.2231 9.0222,0 14.2445,4.74775 8.546,7.12217 8.546,16.14341 0,8.54663 -7.596,14.24421 -16.1433,12.81976 -40.3589,20.89152 -23.7404,8.07165 -45.5811,8.07165 -38.9339,0 -69.7967,-16.61828 -30.8617,-17.093 -48.4299,-47.00576 -17.0932,-29.91264 -17.0932,-67.89704 0,-37.98453 16.1433,-67.8973 16.6182,-30.3875 45.5811,-47.00577 29.4379,-17.093 66.4731,-17.093 36.5602,0 63.1494,16.14341 26.5893,16.14341 40.8326,45.10657 14.2446,28.96304 14.2446,66.47271 z M 1457.228,259.59076 q -34.6602,0 -56.5022,18.99232 -21.3656,18.99221 -27.0629,50.80416 h 158.1092 q -4.2724,-31.81195 -23.7393,-50.80416 -19.467,-18.99232 -50.8048,-18.99232 z"
       style="font-style:normal;font-variant:normal;font-weight:bold;font-stretch:normal;font-size:medium;line-height:1.25;font-family:Comfortaa;-inkscape-font-specification:'Comfortaa Bold';letter-spacing:0px;word-spacing:0px;fill:#00ff66;fill-opacity:1;stroke:none;stroke-width:44.51302338"
       id="path881"
       inkscape:connector-curvature="0" />
    <path
       d="m 1764.4719,217.80796 q 25.1642,0 39.4088,7.59691 14.2446,7.59679 14.2446,18.9922 0,3.32366 -0.4762,4.74787 -4.2736,15.19381 -18.9932,15.19381 -2.3737,0 -7.1211,-0.94874 -18.9931,-3.32366 -30.8628,-3.32366 -34.1866,0 -55.0772,15.66855 -20.8919,15.66867 -20.8919,42.25766 v 138.64325 q 0,11.39542 -6.1724,17.56786 -5.6973,6.17245 -17.5682,6.17245 -11.3947,0 -17.5669,-5.69771 -6.1724,-6.17244 -6.1724,-18.0426 v -212.238 q 0,-11.39531 6.1724,-17.56787 6.1722,-6.17232 17.5669,-6.17232 23.7406,0 23.7406,23.74019 v 9.02136 q 14.2446,-16.61827 35.1353,-26.11437 20.8919,-9.4961 44.6324,-9.4961 z"
       style="font-style:normal;font-variant:normal;font-weight:bold;font-stretch:normal;font-size:medium;line-height:1.25;font-family:Comfortaa;-inkscape-font-specification:'Comfortaa Bold';letter-spacing:0px;word-spacing:0px;fill:#00ff66;fill-opacity:1;stroke:none;stroke-width:44.51302338"
       id="path883"
       inkscape:connector-curvature="0" />
    <path
       d="m 1978.7644,432.89489 q 8.5473,0 14.2447,6.64718 6.1722,6.64731 6.1722,17.09301 0,10.4457 -8.071,17.093 -7.5972,6.64743 -19.9419,6.64743 h -8.5473 q -23.2655,0 -42.7324,-11.87028 -18.992,-12.34489 -29.913,-33.23629 -10.9196,-20.89152 -10.9196,-47.00577 V 270.98618 h -21.8419 q -9.9709,0 -16.1433,-5.69771 -6.1723,-5.69771 -6.1723,-14.24409 0,-9.4961 6.1723,-15.19381 6.1724,-5.69771 16.1433,-5.69771 h 21.8419 v -68.37191 q 0,-10.4457 6.6473,-17.093 6.6473,-6.64731 17.092,-6.64731 10.4459,0 17.0933,6.64731 6.6472,6.6473 6.6472,17.093 v 68.37191 h 40.3589 q 9.971,0 16.1432,5.69771 6.1724,5.69771 6.1724,15.19381 0,8.54638 -6.1724,14.24409 -6.1722,5.69771 -16.1432,5.69771 h -40.3589 v 117.27699 q 0,18.9922 10.446,31.81196 10.446,12.81976 25.6392,12.81976 z"
       style="font-style:normal;font-variant:normal;font-weight:bold;font-stretch:normal;font-size:medium;line-height:1.25;font-family:Comfortaa;-inkscape-font-specification:'Comfortaa Bold';letter-spacing:0px;word-spacing:0px;fill:#00ff66;fill-opacity:1;stroke:none;stroke-width:44.51302338"
       id="path885"
       inkscape:connector-curvature="0" />
    <path
       inkscape:connector-curvature="0"
       id="path951-8"
       d="m 1075.3265,224.65918 c -3.7987,0 -7.1003,0.7888 -9.949,2.37162 -8.8634,4.43125 -13.3019,10.91592 -13.3019,19.46242 0,3.1654 0.6105,6.02665 1.8804,8.55908 l 13.4655,28.37609 h 219.0217 l 13.4656,-28.37609 c 1.5825,-3.16529 2.3712,-6.17355 2.3712,-9.02246 0,-4.11513 -1.0867,-7.76517 -3.298,-10.93057 -2.2162,-3.48202 -5.3982,-6.16903 -9.513,-8.06847 -3.1662,-1.58295 -6.789,-2.37162 -10.9039,-2.37162 z m 11.5302,99.76566 27.8848,58.76909 h 124.4075 l 27.8591,-58.76909 z m 47.3212,99.76566 20.4438,43.09553 c 2.8486,5.69771 6.0306,9.81565 9.513,12.34807 3.4812,2.21606 7.8928,3.32512 13.2739,3.32512 9.8135,0 17.1128,-5.22798 21.8614,-15.67368 l 20.4438,-43.0954 z"
       style="font-style:normal;font-weight:normal;font-size:medium;line-height:1.25;font-family:sans-serif;letter-spacing:0px;word-spacing:0px;fill:#222222;fill-opacity:1;stroke:none;stroke-width:44.51302338" />
  </g>
</svg>
